<?xml version="1.0" encoding="UTF-8" standalone="no"?>
<svg
   xmlns:dc="http://purl.org/dc/elements/1.1/"
   xmlns:cc="http://creativecommons.org/ns#"
   xmlns:rdf="http://www.w3.org/1999/02/22-rdf-syntax-ns#"
   xmlns:svg="http://www.w3.org/2000/svg"
   xmlns="http://www.w3.org/2000/svg"
   xmlns:sodipodi="http://sodipodi.sourceforge.net/DTD/sodipodi-0.dtd"
   xmlns:inkscape="http://www.inkscape.org/namespaces/inkscape"
   id="svg8"
   version="1.1"
   viewBox="0 0 304.8 304.80001"
   height="12in"
   width="12in"
   sodipodi:docname="plyParts2inRocketR2.svg"
   inkscape:version="0.92.5 (2060ec1f9f, 2020-04-08)">
  <sodipodi:namedview
     pagecolor="#ffffff"
     bordercolor="#666666"
     borderopacity="1"
     objecttolerance="10"
     gridtolerance="10"
     guidetolerance="10"
     inkscape:pageopacity="0"
     inkscape:pageshadow="2"
     inkscape:window-width="1600"
     inkscape:window-height="900"
     id="namedview33"
     showgrid="false"
     inkscape:zoom="0.35355339"
     inkscape:cx="552.9758"
     inkscape:cy="469.28476"
     inkscape:window-x="0"
     inkscape:window-y="180"
     inkscape:window-maximized="1"
     inkscape:current-layer="g1022"
     inkscape:snap-global="false"
     inkscape:snap-nodes="true"
     showguides="false" />
  <defs
     id="defs2" />
  <metadata
     id="metadata5">
    <rdf:RDF>
      <cc:Work
         rdf:about="">
        <dc:format>image/svg+xml</dc:format>
        <dc:type
           rdf:resource="http://purl.org/dc/dcmitype/StillImage" />
        <dc:title />
      </cc:Work>
    </rdf:RDF>
  </metadata>
  <style
     id="style11560"><![CDATA[
polygon {
shape-rendering:crispEdges;
stroke-width:0.116785;
}
.s1 {
stroke:#000000;
stroke-width:0.055157;
stroke-linecap:round;
stroke-linejoin:round;
fill:none;
}
.s2 {
stroke:#19b219;
stroke-width:0.055157;
stroke-linecap:round;
stroke-linejoin:round;
fill:none;
}
.s3 {
stroke:#7f4c00;
stroke-width:0.055157;
stroke-linecap:round;
stroke-linejoin:round;
fill:none;
}
.s4 {
stroke:#00cc00;
stroke-width:0.055157;
stroke-linecap:round;
stroke-linejoin:round;
fill:none;
}
.s5 {
stroke:#000000;
stroke-width:0.036772;
stroke-linecap:round;
stroke-linejoin:round;
fill:none;
}
.s6 {
stroke:#ff19ff;
stroke-width:0.036772;
stroke-linecap:round;
stroke-linejoin:round;
fill:none;
}
.s7 {
stroke:#ff0000;
stroke-width:0.055157;
stroke-linecap:round;
stroke-linejoin:round;
fill:none;
}
.s8 {
stroke:#ffff00;
stroke-width:0.055157;
stroke-linecap:round;
stroke-linejoin:round;
fill:none;
}
.s9 {
stroke:#001919;
stroke-width:0.036772;
stroke-linecap:round;
stroke-linejoin:round;
fill:none;
}
.sa {
stroke:#006666;
stroke-width:0.036772;
stroke-linecap:round;
stroke-linejoin:round;
fill:none;
}
.sb {
stroke:#00ffff;
stroke-width:0.036772;
stroke-linecap:round;
stroke-linejoin:round;
fill:none;
}
.sc {
stroke:#ff0000;
stroke-width:0.294173;
stroke-linecap:round;
stroke-linejoin:round;
fill:none;
}
.sd {
stroke:#191919;
stroke-width:0.036772;
stroke-linecap:round;
stroke-linejoin:round;
fill:none;
}
.se {
stroke:#000000;
stroke-width:0.073543;
stroke-linecap:round;
stroke-linejoin:round;
stroke-dasharray:0.552,0.552;
fill:none;
}
.sf {
stroke:#000000;
stroke-width:0.110315;
stroke-linecap:round;
stroke-linejoin:round;
fill:none;
}
]]></style>
  <g
     id="g1022"
     transform="translate(1.8105865,-1.9941388)">
    <path
       id="path11901"
       class="s0"
       d="m 20.486602,54.288972 a 25,25 0 0 0 -17.0979999,27.712 25,25 0 0 0 24.7969999,21.104998 25,25 0 0 0 24.624,-21.305998 25,25 0 0 0 -17.323,-27.572 7.5000001,7.5000001 0 0 1 -7.469,7.53 7.5000001,7.5000001 0 0 1 -7.531,-7.469 m 21.097,6.317 a 2.5,2.5 0 0 1 -2.5,2.5 2.5,2.5 0 0 1 -2.5,-2.5 2.5,2.5 0 0 1 2.5,-2.5 2.5,2.5 0 0 1 2.5,2.5 m 0,35 a 2.5,2.5 0 0 1 -2.5,2.5 2.5,2.5 0 0 1 -2.5,-2.5 2.5,2.5 0 0 1 2.5,-2.49999 2.5,2.5 0 0 1 2.5,2.49999 m -23,-36.552 a 1.5,1.5 0 0 1 -1.5,1.5 1.5,1.5 0 0 1 -1.5,-1.5 1.5,1.5 0 0 1 1.5,-1.5 1.5,1.5 0 0 1 1.5,1.5 m 0,38.105 a 1.5,1.5 0 0 1 -1.5,1.5 1.5,1.5 0 0 1 -1.5,-1.5 1.5,1.5 0 0 1 1.5,-1.5 1.5,1.5 0 0 1 1.5,1.5 m 33,-19.053 a 1.5,1.5 0 0 1 -1.5,1.5 1.5,1.5 0 0 1 -1.5,-1.5 1.5,1.5 0 0 1 1.5,-1.5 1.5,1.5 0 0 1 1.5,1.5"
       style="fill:#ffffff;fill-opacity:1;stroke:#000000;stroke-width:1;stroke-miterlimit:4;stroke-dasharray:none;stroke-opacity:1"
       inkscape:connector-curvature="0" />
    <path
       id="path11901-6"
       class="s0"
       d="m 21.111863,3.60429 a 25,25 0 0 0 -17.098,27.712 25,25 0 0 0 24.797,21.105 25,25 0 0 0 24.624,-21.306 25,25 0 0 0 -17.323,-27.572 7.5000001,7.5000001 0 0 1 -7.469,7.53 7.5000001,7.5000001 0 0 1 -7.531,-7.469 m 21.097,6.317 a 2.5,2.5 0 0 1 -2.5,2.5 2.5,2.5 0 0 1 -2.5,-2.5 2.5,2.5 0 0 1 2.5,-2.5 2.5,2.5 0 0 1 2.5,2.5 m 0,35 a 2.5,2.5 0 0 1 -2.5,2.5 2.5,2.5 0 0 1 -2.5,-2.5 2.5,2.5 0 0 1 2.5,-2.5 2.5,2.5 0 0 1 2.5,2.5 m -23,-36.552 a 1.5,1.5 0 0 1 -1.5,1.5 1.5,1.5 0 0 1 -1.5,-1.5 1.5,1.5 0 0 1 1.5,-1.5 1.5,1.5 0 0 1 1.5,1.5 m 0,38.105 a 1.5,1.5 0 0 1 -1.5,1.5 1.5,1.5 0 0 1 -1.5,-1.5 1.5,1.5 0 0 1 1.5,-1.5 1.5,1.5 0 0 1 1.5,1.5 m 33,-19.053 a 1.5,1.5 0 0 1 -1.5,1.5 1.5,1.5 0 0 1 -1.5,-1.5 1.5,1.5 0 0 1 1.5,-1.5 1.5,1.5 0 0 1 1.5,1.5"
       style="fill:#ffffff;fill-opacity:1;stroke:#000000;stroke-width:1;stroke-miterlimit:4;stroke-dasharray:none;stroke-opacity:1"
       inkscape:connector-curvature="0" />
    <path
       id="path11901-9"
       class="s0"
       d="m 74.188866,57.075359 a 25,25 0 0 0 -17.098,27.711998 25,25 0 0 0 24.797,21.105013 25,25 0 0 0 24.624004,-21.306013 25,25 0 0 0 -17.323004,-27.571998 7.5000001,7.5000001 0 0 1 -7.469,7.53 7.5000001,7.5000001 0 0 1 -7.531,-7.469 m 21.097,6.317 a 2.5,2.5 0 0 1 -2.5,2.5 2.5,2.5 0 0 1 -2.5,-2.5 2.5,2.5 0 0 1 2.5,-2.5 2.5,2.5 0 0 1 2.5,2.5 m 0,34.999998 a 2.5,2.5 0 0 1 -2.5,2.500003 2.5,2.5 0 0 1 -2.5,-2.500003 2.5,2.5 0 0 1 2.5,-2.5 2.5,2.5 0 0 1 2.5,2.5 m -23,-36.551988 a 1.5,1.5 0 0 1 -1.5,1.5 1.5,1.5 0 0 1 -1.5,-1.5 1.5,1.5 0 0 1 1.5,-1.5 1.5,1.5 0 0 1 1.5,1.5 m 0,38.104998 a 1.5,1.5 0 0 1 -1.5,1.499993 1.5,1.5 0 0 1 -1.5,-1.499993 1.5,1.5 0 0 1 1.5,-1.5 1.5,1.5 0 0 1 1.5,1.5 m 33.000004,-19.05301 a 1.5,1.5 0 0 1 -1.5,1.5 1.5,1.5 0 0 1 -1.5,-1.5 1.5,1.5 0 0 1 1.5,-1.5 1.5,1.5 0 0 1 1.5,1.5"
       style="fill:#ffffff;fill-opacity:1;stroke:#000000;stroke-width:1;stroke-miterlimit:4;stroke-dasharray:none;stroke-opacity:1"
       inkscape:connector-curvature="0" />
    <path
       id="path11901-1"
       class="s0"
       d="M 74.152987,4.1228221 A 25,25 0 0 0 57.054988,31.834822 25,25 0 0 0 81.851987,52.939832 25,25 0 0 0 106.47599,31.633822 25,25 0 0 0 89.152987,4.0618221 a 7.5000001,7.5000001 0 0 1 -7.469,7.5299999 7.5000001,7.5000001 0 0 1 -7.531,-7.4689999 m 21.097,6.3169999 a 2.5,2.5 0 0 1 -2.5,2.5 2.5,2.5 0 0 1 -2.5,-2.5 2.5,2.5 0 0 1 2.5,-2.4999999 2.5,2.5 0 0 1 2.5,2.4999999 m 0,35 a 2.5,2.5 0 0 1 -2.5,2.5 2.5,2.5 0 0 1 -2.5,-2.5 2.5,2.5 0 0 1 2.5,-2.5 2.5,2.5 0 0 1 2.5,2.5 m -23,-36.5519999 a 1.5,1.5 0 0 1 -1.5,1.4999999 1.5,1.5 0 0 1 -1.5,-1.4999999 1.5,1.5 0 0 1 1.5,-1.5 1.5,1.5 0 0 1 1.5,1.5 m 0,38.1050099 a 1.5,1.5 0 0 1 -1.5,1.49999 1.5,1.5 0 0 1 -1.5,-1.49999 1.5,1.5 0 0 1 1.5,-1.5 1.5,1.5 0 0 1 1.5,1.5 m 33.000003,-19.05301 a 1.5,1.5 0 0 1 -1.5,1.5 1.5,1.5 0 0 1 -1.5,-1.5 1.5,1.5 0 0 1 1.5,-1.5 1.5,1.5 0 0 1 1.5,1.5"
       style="fill:#ffffff;fill-opacity:1;stroke:#000000;stroke-width:1;stroke-miterlimit:4;stroke-dasharray:none;stroke-opacity:1"
       inkscape:connector-curvature="0" />
    <path
       id="path21699-2"
       class="s0"
       d="m 166.78872,35.292478 a 27.000002,27.000002 0 0 0 -26.99999,-26.9999996 27.000002,27.000002 0 0 0 -27,26.9999996 27.000002,27.000002 0 0 0 27,27.00001 27.000002,27.000002 0 0 0 26.99999,-27.00001 m -6.5,0 a 20.5,20.5 0 0 1 -20.49999,20.5 20.5,20.5 0 0 1 -20.5,-20.5 20.5,20.5 0 0 1 20.5,-20.5 20.5,20.5 0 0 1 20.49999,20.5"
       style="fill:#ffffff;fill-opacity:1;stroke:#000000;stroke-width:1;stroke-miterlimit:4;stroke-dasharray:none;stroke-opacity:1"
       inkscape:connector-curvature="0" />
    <path
       id="path27701"
       class="s0"
       d="m 116.93605,70.763196 h 101.946 v -3.65 h 2.654 v -3 h -3 -101.6 -3 v 3 h 3 v 3.65"
       style="fill:#ffffff;fill-opacity:1;stroke:#000000;stroke-width:1;stroke-miterlimit:4;stroke-dasharray:none;stroke-opacity:1"
       inkscape:connector-curvature="0" />
    <path
       id="path27701-7"
       class="s0"
       d="m 172.9454,12.728036 h 101.946 V 9.0780364 h 2.654 v -3 h -3 -101.6 -3 v 3 h 3 v 3.6499996"
       style="fill:#ffffff;fill-opacity:1;stroke:#000000;stroke-width:1;stroke-miterlimit:4;stroke-dasharray:none;stroke-opacity:1"
       inkscape:connector-curvature="0" />
    <path
       id="path27701-9"
       class="s0"
       d="m 176.56585,32.839832 h 101.946 v -3.65 h 2.654 v -3 h -3 -101.6 -3 v 3 h 3 v 3.65"
       style="fill:#ffffff;fill-opacity:1;stroke:#000000;stroke-width:1;stroke-miterlimit:4;stroke-dasharray:none;stroke-opacity:1"
       inkscape:connector-curvature="0" />
    <path
       id="path27701-2"
       class="s0"
       d="m 114.84076,90.996909 h 101.946 v -3.650002 h 2.654 v -2.999999 h -3 -101.6 -3 v 2.999999 h 3 v 3.650002"
       style="fill:#ffffff;fill-opacity:1;stroke:#000000;stroke-width:1;stroke-miterlimit:4;stroke-dasharray:none;stroke-opacity:1"
       inkscape:connector-curvature="0" />
    <path
       id="path27701-0"
       class="s0"
       d="m 116.56484,81.242224 h 101.946 v -3.65 h 2.654 v -3 h -3 -101.6 -3 v 3 h 3 v 3.65"
       style="fill:#ffffff;fill-opacity:1;stroke:#000000;stroke-width:1;stroke-miterlimit:4;stroke-dasharray:none;stroke-opacity:1"
       inkscape:connector-curvature="0" />
    <path
       id="path27701-23"
       class="s0"
       d="m 173.47455,22.755651 h 101.94601 v -3.650002 h 2.654 v -3.000001 h -3 -101.60001 -3 v 3.000001 h 3 v 3.650002"
       style="fill:#ffffff;fill-opacity:1;stroke:#000000;stroke-width:1;stroke-miterlimit:4;stroke-dasharray:none;stroke-opacity:1"
       inkscape:connector-curvature="0" />
    <text
       id="text29951"
       y="221.01608"
       x="19.994488"
       style="font-style:normal;font-weight:normal;font-size:7.05555534px;line-height:1.25;font-family:sans-serif;letter-spacing:0px;word-spacing:0px;fill:#b3b3b3;fill-opacity:1;stroke:#ffffff;stroke-width:0.26458332"
       xml:space="preserve"><tspan
         style="fill:#b3b3b3;fill-opacity:1;stroke:#ffffff;stroke-width:0.26458332"
         y="221.01608"
         x="19.994488"
         id="tspan29949">54mm AF - 38mm MMT</tspan></text>
    <path
       id="path32194"
       class="s0"
       d="m 227.98315,129.86633 62.89883,51.54249 7.79947,0.0916 1.19361,-101.592982 -7.79947,-0.0916 0.5968,-50.796491 -64.09244,50.050481 -0.5968,50.796502"
       style="fill:#ffffff;fill-opacity:1;stroke:#000000;stroke-width:1;stroke-opacity:1"
       inkscape:connector-curvature="0" />
    <path
       id="path32194-9"
       class="s0"
       d="m 301.23045,199.06037 -62.8205,-51.63792 -7.79933,-0.10347 -1.34781,101.59108 7.79932,0.10347 -0.67391,50.79553 64.16832,-49.95314 0.67391,-50.79555"
       style="fill:#ffffff;fill-opacity:1;stroke:#000000;stroke-width:1;stroke-opacity:1"
       inkscape:connector-curvature="0" />
    <path
       id="path32194-6"
       class="s0"
       d="m 51.315358,228.43233 -50.80000213,63.5 v 7.80002 H 102.11537 v -7.80001 h 50.8 l -50.8,-63.5 H 51.315358"
       style="fill:#ffffff;fill-opacity:1;stroke:#000000;stroke-width:1;stroke-opacity:1"
       inkscape:connector-curvature="0" />
    <path
       style="fill:#ffffff;stroke:#000000;stroke-width:1"
       d="m 180.80057,254.04169 2.597,1.503 a 27.000002,27.000002 0 0 0 -2.077,-22.439 27.000002,27.000002 0 0 0 -18.372,-13.048 v 3 l -3,-0.002 v -2.99999 l -4,-0.004 v 3 l -3,-0.002 v -2.99999 a 27.000002,27.000002 0 0 0 -18.393,13.018 27.000002,27.000002 0 0 0 -2.114,22.434 l 2.599,-1.497 1.498,2.599 -2.6,1.498 1.998,3.465 2.599,-1.497 1.498,2.599 -2.6,1.498 a 27.000002,27.000002 0 0 0 20.471,9.42 27.000002,27.000002 0 0 0 20.486,-9.386 l -2.597,-1.502 1.502,-2.597 2.597,1.502 2.003,-3.463 -2.597,-1.502 1.502,-2.597 m -2.374,-7.455 a 20.5,20.5 0 0 1 -20.5,20.5 20.5,20.5 0 0 1 -20.5,-20.5 20.5,20.5 0 0 1 20.5,-20.5 20.5,20.5 0 0 1 20.5,20.5"
       class="s0"
       id="path4439"
       inkscape:connector-curvature="0" />
    <path
       style="fill:#ffffff;stroke:#000000;stroke-width:1"
       d="m 227.95121,284.78531 2.59699,1.503 a 27.000002,27.000002 0 0 0 -2.077,-22.439 27.000002,27.000002 0 0 0 -18.37198,-13.048 v 3 l -3,-0.002 v -2.99999 l -4,-0.004 v 3 l -3,-0.002 v -2.99999 a 27.000002,27.000002 0 0 0 -18.39301,13.018 27.000002,27.000002 0 0 0 -2.114,22.434 l 2.599,-1.497 1.498,2.599 -2.6,1.498 1.998,3.465 2.599,-1.497 1.498,2.599 -2.6,1.498 a 27.000002,27.000002 0 0 0 20.47102,9.42 27.000002,27.000002 0 0 0 20.48598,-9.386 l -2.597,-1.502 1.50199,-2.597 2.59701,1.502 2.00299,-3.463 -2.59699,-1.502 1.502,-2.597 m -2.37401,-7.45502 a 20.5,20.5 0 0 1 -20.49998,20.5 20.5,20.5 0 0 1 -20.50001,-20.5 20.5,20.5 0 0 1 20.50001,-20.5 20.5,20.5 0 0 1 20.49998,20.5"
       class="s0"
       id="path4439-3"
       inkscape:connector-curvature="0" />
    <path
       style="fill:#ffffff;stroke:#000000;stroke-width:0.99999994"
       d="m 221.6801,173.95269 a 24.999999,24.999999 0 0 0 -25,-25 24.999999,24.999999 0 0 0 -25,25 24.999999,24.999999 0 0 0 25,25 24.999999,24.999999 0 0 0 25,-25 m -9.256,-13.993 a 6.9999998,6.9999998 0 0 1 -7,7 6.9999998,6.9999998 0 0 1 -7.00001,-7 6.9999998,6.9999998 0 0 1 7.00001,-7 6.9999998,6.9999998 0 0 1 7,7 m 0,27.986 a 6.9999998,6.9999998 0 0 1 -7,7 6.9999998,6.9999998 0 0 1 -7.00001,-7 6.9999998,6.9999998 0 0 1 7.00001,-7 6.9999998,6.9999998 0 0 1 7,7 m 7.75599,-13.993 a 6.9999998,6.9999998 0 0 1 -7,7 6.9999998,6.9999998 0 0 1 -6.99999,-7 6.9999998,6.9999998 0 0 1 6.99999,-7 6.9999998,6.9999998 0 0 1 7,7 m -27.49999,-4 h 8 v 8 h -8 v -8"
       class="s0"
       id="path25392"
       inkscape:connector-curvature="0" />
    <path
       style="fill:#ffffff;stroke:#000000;stroke-width:0.99999994"
       d="m 163.23393,173.73426 a 24.999999,24.999999 0 0 0 -25,-25 24.999999,24.999999 0 0 0 -25,25 24.999999,24.999999 0 0 0 25,25 24.999999,24.999999 0 0 0 25,-25 m -9.256,-13.993 a 6.9999998,6.9999998 0 0 1 -7,7 6.9999998,6.9999998 0 0 1 -7,-7 6.9999998,6.9999998 0 0 1 7,-7 6.9999998,6.9999998 0 0 1 7,7 m 0,27.985 a 6.9999998,6.9999998 0 0 1 -7,7 6.9999998,6.9999998 0 0 1 -7,-7 6.9999998,6.9999998 0 0 1 7,-7 6.9999998,6.9999998 0 0 1 7,7 m 7.756,-13.992 a 6.9999998,6.9999998 0 0 1 -7,7 6.9999998,6.9999998 0 0 1 -7,-7 6.9999998,6.9999998 0 0 1 7,-7 6.9999998,6.9999998 0 0 1 7,7 m -19.5,0 a 3.9999999,3.9999999 0 0 1 -4,4 3.9999999,3.9999999 0 0 1 -4,-4 3.9999999,3.9999999 0 0 1 4,-4 3.9999999,3.9999999 0 0 1 4,4"
       class="s0"
       id="path25398"
       inkscape:connector-curvature="0" />
    <path
       style="fill:#ffffff;stroke:#000000;stroke-width:0.99999994"
       d="m 165.06976,119.84833 a 24.999999,24.999999 0 0 0 -25,-24.999995 24.999999,24.999999 0 0 0 -25,24.999995 24.999999,24.999999 0 0 0 25,25 24.999999,24.999999 0 0 0 25,-25 m -10.183,0 a 2.9999998,2.9999998 0 0 1 -3.00001,3 2.9999998,2.9999998 0 0 1 -2.99999,-3 2.9999998,2.9999998 0 0 1 2.99999,-3 2.9999998,2.9999998 0 0 1 3.00001,3 m -16.561,-13.992 a 6.9999998,6.9999998 0 0 1 -7,7 6.9999998,6.9999998 0 0 1 -7,-7 6.9999998,6.9999998 0 0 1 7,-6.999995 6.9999998,6.9999998 0 0 1 7,6.999995 m 0,27.985 a 6.9999998,6.9999998 0 0 1 -7,7 6.9999998,6.9999998 0 0 1 -7,-7 6.9999998,6.9999998 0 0 1 7,-7 6.9999998,6.9999998 0 0 1 7,7 m -7.756,-13.993 a 6.9999998,6.9999998 0 0 1 -7,7 6.9999998,6.9999998 0 0 1 -7,-7 6.9999998,6.9999998 0 0 1 7,-7 6.9999998,6.9999998 0 0 1 7,7"
       class="s0"
       id="path25396"
       inkscape:connector-curvature="0" />
    <path
       style="fill:#ffffff;stroke:#000000;stroke-width:1.00000012"
       d="m 108.61767,134.59567 a 26.500003,26.500003 0 0 0 -26.499987,-26.5 26.500003,26.500003 0 0 0 -26.50001,26.5 26.500003,26.500003 0 0 0 26.50001,26.49999 26.500003,26.500003 0 0 0 26.499987,-26.49999 m -12.999997,-17.5 a 2.5000002,2.5000002 0 0 1 -2.5,2.5 2.5000002,2.5000002 0 0 1 -2.5,-2.5 2.5000002,2.5000002 0 0 1 2.5,-2.5 2.5000002,2.5000002 0 0 1 2.5,2.5 m 0,35 a 2.5000002,2.5000002 0 0 1 -2.5,2.5 2.5000002,2.5000002 0 0 1 -2.5,-2.5 2.5000002,2.5000002 0 0 1 2.5,-2.5 2.5000002,2.5000002 0 0 1 2.5,2.5 m 4,-17.5 a 3.0000001,3.0000001 0 0 1 -2.99999,3 3.0000001,3.0000001 0 0 1 -3,-3 3.0000001,3.0000001 0 0 1 3,-3 3.0000001,3.0000001 0 0 1 2.99999,3 m -25.5,0 a 5.5000004,5.5000004 0 0 1 -5.5,5.5 5.5000004,5.5000004 0 0 1 -5.5,-5.5 5.5000004,5.5000004 0 0 1 5.5,-5.5 5.5000004,5.5000004 0 0 1 5.5,5.5"
       class="s0"
       id="path33409"
       inkscape:connector-curvature="0" />
    <path
       style="fill:#ffffff;stroke:#000000;stroke-width:1.00000012"
       d="m 52.611018,130.30737 a 25.000002,25.000002 0 0 0 -24.999997,-25 25.000002,25.000002 0 0 0 -25.0000003,25 25.000002,25.000002 0 0 0 25.0000003,25 25.000002,25.000002 0 0 0 24.999997,-25 m -11.499997,-17.234 a 2.5000002,2.5000002 0 0 1 -2.5,2.5 2.5000002,2.5000002 0 0 1 -2.5,-2.5 2.5000002,2.5000002 0 0 1 2.5,-2.5 2.5000002,2.5000002 0 0 1 2.5,2.5 m 0,35.00001 a 2.5000002,2.5000002 0 0 1 -2.5,2.5 2.5000002,2.5000002 0 0 1 -2.5,-2.5 2.5000002,2.5000002 0 0 1 2.5,-2.5 2.5000002,2.5000002 0 0 1 2.5,2.5 m 3.500002,-17.76601 a 3.0000001,3.0000001 0 0 1 -3.000002,3 3.0000001,3.0000001 0 0 1 -3,-3 3.0000001,3.0000001 0 0 1 3,-3 3.0000001,3.0000001 0 0 1 3.000002,3 m -23.503002,0.355 a 2.5000002,2.5000002 0 0 1 -2.5,2.5 2.5000002,2.5000002 0 0 1 -2.5,-2.5 2.5000002,2.5000002 0 0 1 2.5,-2.5 2.5000002,2.5000002 0 0 1 2.5,2.5"
       class="s0"
       id="path33411"
       inkscape:connector-curvature="0" />
    <path
       style="fill:#ffffff;stroke:#000000;stroke-width:1.00000012"
       d="m 107.8303,187.52206 a 25.000002,25.000002 0 0 0 -25.000002,-25 25.000002,25.000002 0 0 0 -24.99999,25 25.000002,25.000002 0 0 0 24.99999,25 25.000002,25.000002 0 0 0 25.000002,-25 m -11.500002,-17.234 a 2.5000002,2.5000002 0 0 1 -2.5,2.5 2.5000002,2.5000002 0 0 1 -2.5,-2.5 2.5000002,2.5000002 0 0 1 2.5,-2.5 2.5000002,2.5000002 0 0 1 2.5,2.5 m 0,35.00001 a 2.5000002,2.5000002 0 0 1 -2.5,2.5 2.5000002,2.5000002 0 0 1 -2.5,-2.5 2.5000002,2.5000002 0 0 1 2.5,-2.5 2.5000002,2.5000002 0 0 1 2.5,2.5 m 3.5,-17.76601 a 3.0000001,3.0000001 0 0 1 -3,3 3.0000001,3.0000001 0 0 1 -3,-3 3.0000001,3.0000001 0 0 1 3,-3 3.0000001,3.0000001 0 0 1 3,3 m -23.503,0.355 a 2.5000002,2.5000002 0 0 1 -2.5,2.5 2.5000002,2.5000002 0 0 1 -2.5,-2.5 2.5000002,2.5000002 0 0 1 2.5,-2.5 2.5000002,2.5000002 0 0 1 2.5,2.5"
       class="s0"
       id="path33411-3"
       inkscape:connector-curvature="0" />
    <path
       style="fill:#ffffff;stroke:#000000;stroke-width:1.00000012"
       d="m 55.109922,183.86146 a 26.500003,26.500003 0 0 0 -26.49999,-26.5 26.500003,26.500003 0 0 0 -26.5000093,26.5 26.500003,26.500003 0 0 0 26.5000093,26.5 26.500003,26.500003 0 0 0 26.49999,-26.5 m -13,-17.5 a 2.5000002,2.5000002 0 0 1 -2.5,2.5 2.5000002,2.5000002 0 0 1 -2.5,-2.5 2.5000002,2.5000002 0 0 1 2.5,-2.5 2.5000002,2.5000002 0 0 1 2.5,2.5 m 0,35 a 2.5000002,2.5000002 0 0 1 -2.5,2.5 2.5000002,2.5000002 0 0 1 -2.5,-2.5 2.5000002,2.5000002 0 0 1 2.5,-2.5 2.5000002,2.5000002 0 0 1 2.5,2.5 m 4,-17.5 a 3.0000001,3.0000001 0 0 1 -2.99999,3 3.0000001,3.0000001 0 0 1 -3,-3 3.0000001,3.0000001 0 0 1 3,-3 3.0000001,3.0000001 0 0 1 2.99999,3 m -25.5,0 a 5.5000004,5.5000004 0 0 1 -5.5,5.5 5.5000004,5.5000004 0 0 1 -5.4999997,-5.5 5.5000004,5.5000004 0 0 1 5.4999997,-5.5 5.5000004,5.5000004 0 0 1 5.5,5.5"
       class="s0"
       id="path33409-3"
       inkscape:connector-curvature="0" />
    <path
       inkscape:connector-curvature="0"
       id="path983"
       class="s0"
       d="m 219.6395,119.49018 a 24.999999,24.999999 0 0 0 -25,-25 24.999999,24.999999 0 0 0 -25,25 24.999999,24.999999 0 0 0 25,25.00001 24.999999,24.999999 0 0 0 25,-25.00001 m -9.256,-13.993 a 6.9999998,6.9999998 0 0 1 -7,7 6.9999998,6.9999998 0 0 1 -7,-7 6.9999998,6.9999998 0 0 1 7,-7 6.9999998,6.9999998 0 0 1 7,7 m 0,27.985 a 6.9999998,6.9999998 0 0 1 -7,7.00001 6.9999998,6.9999998 0 0 1 -7,-7.00001 6.9999998,6.9999998 0 0 1 7,-7 6.9999998,6.9999998 0 0 1 7,7 m 7.756,-13.992 a 6.9999998,6.9999998 0 0 1 -7,7 6.9999998,6.9999998 0 0 1 -7,-7 6.9999998,6.9999998 0 0 1 7,-7 6.9999998,6.9999998 0 0 1 7,7 m -19.5,0 a 3.9999999,3.9999999 0 0 1 -4,4 3.9999999,3.9999999 0 0 1 -4,-4 3.9999999,3.9999999 0 0 1 4,-4 3.9999999,3.9999999 0 0 1 4,4"
       style="fill:#ffffff;stroke:#000000;stroke-width:0.99999994" />
    <text
       xml:space="preserve"
       style="font-style:normal;font-weight:normal;font-size:7.05555534px;line-height:1.25;font-family:sans-serif;letter-spacing:0px;word-spacing:0px;fill:#ffffff;fill-opacity:1;stroke:#cccccc;stroke-width:0.26458332"
       x="112.3768"
       y="210.68311"
       id="text854"><tspan
         id="tspan852"
         x="112.3768"
         y="210.68311"
         style="fill:#ffffff;fill-opacity:1;stroke:#cccccc;stroke-width:0.26458332">Mike Loman 5/27/24</tspan></text>
  </g>
</svg>
